# File created by Blade
# Date/Time:  Tue Jan 27 20:07:51 2015
# Frame Rate: 120.000 fps
#------------------------------------------------------
:FULLY-SPECIFIED
:DEGREES
3204
root 4.399707 33.981124 -4.820766 32.202727 -35.822664 -33.737957
Spine -0.170226 26.768995 2.583379
Head -1.564514 -0.477462 13.731476
LeftShoulder -15.618273 -1.024656 31.175576
LeftArm -16.508758 -40.963327 -70.695686
LeftForeArm -46.687621 -0.000000 126.232529
LeftHand 9.957942 -0.000000 -40.839863
LeftHandThumb1 -26.253704 0.000000 33.147579
RightShoulder -10.498034 -1.516919 -20.592923
RightArm 26.551215 -37.499415 89.469924
RightForeArm -17.624155 0.000000 17.731818
RightHand 17.014053 0.000000 2.783372
RightHandThumb1 -24.326973 -0.000000 -32.862282
LeftUpLeg -0.786416 23.113386 15.929410
LeftLeg -8.888208 -0.000000 0.000000
LeftFoot -17.329435 20.208661 -17.379287
LeftToeBase 19.322900 -0.000000 -0.000000
RightUpLeg 41.744521 -53.491161 -63.380351
RightLeg 105.175588 -0.000000 -0.000000
RightFoot 24.196617 -30.692108 25.670029
RightToeBase 18.150637 -0.000000 -0.000000
3205
root 4.396519 33.983488 -4.815773 32.272635 -35.864438 -33.860363
Spine -0.099097 26.780360 2.567950
Head -1.738166 -0.459116 13.816210
LeftShoulder -15.554849 -1.039159 31.206899
LeftArm -16.302158 -40.900420 -70.882430
LeftForeArm -46.855373 0.000000 126.325496
LeftHand 9.979307 -0.000000 -40.964655
LeftHandThumb1 -26.253704 0.000000 33.147579
RightShoulder -10.529081 -1.498641 -20.584768
RightArm 26.581737 -37.697274 89.473864
RightForeArm -17.484689 -0.000000 17.796141
RightHand 16.926132 -0.000000 2.657296
RightHandThumb1 -24.326973 -0.000000 -32.862282
LeftUpLeg -0.724973 23.385687 15.988841
LeftLeg -8.938731 -0.000000 0.000000
LeftFoot -17.274238 20.042277 -17.341625
LeftToeBase 19.336135 -0.000000 -0.000000
RightUpLeg 41.751332 -53.660286 -63.471441
RightLeg 105.116974 -0.000000 -0.000000
RightFoot 24.290427 -30.694069 25.596257
RightToeBase 18.008495 -0.000000 -0.000000
3206
root 4.397578 33.985721 -4.812055 32.344762 -35.875825 -33.946974
Spine -0.052669 26.739991 2.529528
Head -1.913232 -0.416516 13.896531
LeftShoulder -15.490105 -1.155999 31.250051
LeftArm -16.297945 -40.872813 -70.921053
LeftForeArm -46.933810 -0.000000 126.477213
LeftHand 9.936288 -0.000000 -41.118397
LeftHandThumb1 -26.253704 0.000000 33.147579
RightShoulder -10.536393 -1.478567 -20.558104
RightArm 26.574505 -37.770901 89.520681
RightForeArm -17.468576 0.000000 17.857179
RightHand 16.901953 -0.000000 2.649019
RightHandThumb1 -24.326973 -0.000000 -32.862282
LeftUpLeg -0.716492 23.606704 16.022403
LeftLeg -8.970779 -0.000000 0.000000
LeftFoot -17.230643 19.925504 -17.285471
LeftToeBase 19.351305 -0.000000 -0.000000
RightUpLeg 41.745219 -53.826072 -63.521581
RightLeg 105.104676 -0.000000 -0.000000
RightFoot 24.268741 -30.595709 25.687862
RightToeBase 18.160562 -0.000000 -0.000000
3207
root 4.398924 33.987286 -4.807740 32.415271 -35.865085 -34.009553
Spine -0.037064 26.674093 2.478849
Head -2.026650 -0.308748 13.966457
LeftShoulder -15.420978 -1.293579 31.301063
LeftArm -16.432063 -40.856889 -70.903847
LeftForeArm -47.224282 -0.000000 126.657508
LeftHand 9.795004 0.000000 -41.300503
LeftHandThumb1 -26.253704 0.000000 33.147579
RightShoulder -10.542693 -1.496563 -20.522507
RightArm 26.593661 -37.812684 89.555708
RightForeArm -17.493960 -0.000000 17.916839
RightHand 16.852056 -0.000000 2.788037
RightHandThumb1 -24.326973 -0.000000 -32.862282
LeftUpLeg -0.722110 23.787504 16.045363
LeftLeg -9.022056 -0.000000 0.000000
LeftFoot -17.147335 19.789615 -17.226995
LeftToeBase 19.235337 -0.000000 -0.000000
RightUpLeg 41.769782 -54.015403 -63.615039
RightLeg 105.095805 -0.000000 -0.000000
RightFoot 24.382328 -30.612941 25.680046
RightToeBase 17.789969 -0.000000 -0.000000
3208
root 4.402768 33.986839 -4.802120 32.477590 -35.844844 -34.025534
Spine -0.047959 26.595422 2.407695
Head -2.119570 -0.283489 13.990948
LeftShoulder -15.393968 -1.224380 31.224123
LeftArm -16.210113 -40.788133 -71.030060
LeftForeArm -47.665542 0.000000 126.882161
LeftHand 9.683183 0.000000 -41.219040
LeftHandThumb1 -26.253704 0.000000 33.147579
RightShoulder -10.540791 -1.473987 -20.535800
RightArm 26.526937 -37.876053 89.661717
RightForeArm -17.569393 -0.000000 17.965119
RightHand 16.896504 -0.000000 2.902458
RightHandThumb1 -24.326973 -0.000000 -32.862282
LeftUpLeg -0.751009 23.933940 16.030522
LeftLeg -9.090487 -0.000000 0.000000
LeftFoot -17.077225 19.657982 -17.247012
LeftToeBase 18.963034 -0.000000 -0.000000
RightUpLeg 41.845928 -54.235268 -63.798456
RightLeg 105.098829 -0.000000 -0.000000
RightFoot 24.431494 -30.790410 25.695170
RightToeBase 17.821766 -0.000000 -0.000000
3209
root 4.404268 33.985953 -4.795395 32.524439 -35.820035 -34.035650
Spine -0.057829 26.496987 2.313497
Head -2.241165 -0.268680 14.045539
LeftShoulder -15.344618 -1.217762 31.227700
LeftArm -16.261312 -40.821330 -71.052207
LeftForeArm -48.034459 -0.000000 127.133538
LeftHand 9.641673 -0.000000 -41.318673
LeftHandThumb1 -26.253704 0.000000 33.147579
RightShoulder -10.534311 -1.482259 -20.516298
RightArm 26.521537 -37.951884 89.706789
RightForeArm -17.568527 -0.000000 18.006204
RightHand 16.879227 -0.000000 3.077872
RightHandThumb1 -24.326973 -0.000000 -32.862282
LeftUpLeg -0.754964 24.043397 16.026654
LeftLeg -9.166477 -0.000000 0.000000
LeftFoot -16.993204 19.518535 -17.264237
LeftToeBase 18.825943 -0.000000 -0.000000
RightUpLeg 41.884853 -54.368490 -63.875822
RightLeg 105.117942 -0.000000 -0.000000
RightFoot 24.526834 -30.612778 25.643971
RightToeBase 17.679374 -0.000000 -0.000000
3210
root 4.407499 33.985104 -4.788761 32.572561 -35.790170 -34.026723
Spine -0.077222 26.417456 2.215377
Head -2.332924 -0.241550 14.055809
LeftShoulder -15.312937 -1.231513 31.251857
LeftArm -16.341792 -40.851460 -71.089628
LeftForeArm -48.290721 -0.000000 127.369766
LeftHand 9.583031 -0.000000 -41.468041
LeftHandThumb1 -26.253704 0.000000 33.147579
RightShoulder -10.547727 -1.552524 -20.504317
RightArm 26.591626 -38.068396 89.698436
RightForeArm -17.661856 -0.000000 18.036320
RightHand 16.841932 -0.000000 3.025033
RightHandThumb1 -24.326973 -0.000000 -32.862282
LeftUpLeg -0.772163 24.099331 16.012521
LeftLeg -9.249236 -0.000000 0.000000
LeftFoot -16.922534 19.331946 -17.353087
LeftToeBase 18.749903 -0.000000 -0.000000
RightUpLeg 41.935039 -54.527344 -63.973854
RightLeg 105.157927 -0.000000 -0.000000
RightFoot 24.392333 -30.599440 25.776617
RightToeBase 18.031881 -0.000000 -0.000000
3211
root 4.411283 33.986655 -4.783745 32.634187 -35.745744 -34.040943
Spine -0.100074 26.362722 2.136185
Head -2.409367 -0.209670 14.113267
LeftShoulder -15.312083 -1.306130 31.259698
LeftArm -16.453782 -40.822205 -71.095884
LeftForeArm -48.514270 0.000000 127.672462
LeftHand 9.462050 0.000000 -41.503529
LeftHandThumb1 -26.253704 0.000000 33.147579
RightShoulder -10.547392 -1.620762 -20.476988
RightArm 26.620591 -38.114396 89.697561
RightForeArm -17.720453 -0.000000 18.066567
RightHand 16.853302 -0.000000 3.038987
RightHandThumb1 -24.326973 -0.000000 -32.862282
LeftUpLeg -0.813481 24.111461 16.021182
LeftLeg -9.287826 -0.000000 0.000000
LeftFoot -16.897279 19.268359 -17.398972
LeftToeBase 18.688342 -0.000000 -0.000000
RightUpLeg 41.940093 -54.668158 -63.985915
RightLeg 105.183796 -0.000000 -0.000000
RightFoot 24.415148 -30.555614 25.784170
RightToeBase 18.130699 -0.000000 -0.000000
3212
root 4.416974 33.987229 -4.777270 32.722268 -35.737601 -34.038191
Spine -0.162342 26.355922 2.016047
Head -2.516505 -0.248072 14.099744
LeftShoulder -15.298806 -1.111985 31.244934
LeftArm -16.305964 -40.924443 -71.336655
LeftForeArm -48.642316 -0.000000 127.942671
LeftHand 9.420055 -0.000000 -41.438136
LeftHandThumb1 -26.253704 0.000000 33.147579
RightShoulder -10.574107 -1.602039 -20.487574
RightArm 26.525105 -38.202590 89.773496
RightForeArm -17.787677 -0.000000 18.094373
RightHand 16.857193 -0.000000 3.081935
RightHandThumb1 -24.326973 -0.000000 -32.862282
LeftUpLeg -0.872526 24.131189 15.980490
LeftLeg -9.353115 -0.000000 0.000000
LeftFoot -16.821358 19.233035 -17.376001
LeftToeBase 18.650319 -0.000000 -0.000000
RightUpLeg 41.838452 -54.831554 -63.954975
RightLeg 105.236240 -0.000000 -0.000000
RightFoot 24.419592 -30.670700 25.922884
RightToeBase 18.091584 -0.000000 -0.000000
3213
root 4.419463 33.990149 -4.771949 32.787794 -35.697872 -34.059947
Spine -0.158934 26.328441 1.959151
Head -2.663280 -0.226076 14.083225
LeftShoulder -15.364860 -1.072720 31.239976
LeftArm -16.313227 -40.892133 -71.430926
LeftForeArm -48.723958 -0.000000 128.199513
LeftHand 9.421797 -0.000000 -41.517494
LeftHandThumb1 -26.253704 0.000000 33.147579
RightShoulder -10.585629 -1.618938 -20.485224
RightArm 26.489004 -38.272695 89.804053
RightForeArm -17.776597 -0.000000 18.108967
RightHand 16.888596 -0.000000 2.976432
RightHandThumb1 -24.326973 -0.000000 -32.862282
LeftUpLeg -0.910786 24.090082 15.996946
LeftLeg -9.389615 -0.000000 0.000000
LeftFoot -16.783231 19.216489 -17.401065
LeftToeBase 18.592781 -0.000000 -0.000000
RightUpLeg 41.763237 -54.916808 -63.826230
RightLeg 105.271045 -0.000000 -0.000000
RightFoot 24.390281 -30.466341 25.893482
RightToeBase 18.440261 -0.000000 -0.000000
3214
root 4.422238 33.992389 -4.766281 32.855704 -35.667288 -34.085027
Spine -0.130065 26.330550 1.926838
Head -2.843280 -0.230794 13.990413
LeftShoulder -15.440953 -1.027164 31.207135
LeftArm -16.331824 -40.839420 -71.475471
LeftForeArm -48.877863 0.000000 128.412564
LeftHand 9.465178 -0.000000 -41.641205
LeftHandThumb1 -26.253704 0.000000 33.147579
RightShoulder -10.609944 -1.647773 -20.507814
RightArm 26.452231 -38.331926 89.831078
RightForeArm -17.629040 -0.000000 18.153443
RightHand 16.851027 -0.000000 2.940560
RightHandThumb1 -24.326973 -0.000000 -32.862282
LeftUpLeg -0.951132 24.052423 16.011974
LeftLeg -9.411113 -0.000000 0.000000
LeftFoot -16.763974 19.200403 -17.416423
LeftToeBase 18.583520 -0.000000 -0.000000
RightUpLeg 41.641841 -55.011087 -63.694684
RightLeg 105.305892 -0.000000 -0.000000
RightFoot 24.404678 -30.600563 26.012611
RightToeBase 18.495279 -0.000000 -0.000000
3215
root 4.425525 33.994549 -4.759936 32.915375 -35.636569 -34.087797
Spine -0.133925 26.363198 1.875344
Head -2.951568 -0.293674 13.894912
LeftShoulder -15.486936 -0.935707 31.170378
LeftArm -16.257896 -40.812233 -71.581995
LeftForeArm -49.052931 -0.000000 128.592835
LeftHand 9.458215 -0.000000 -41.651391
LeftHandThumb1 -26.253704 0.000000 33.147579
RightShoulder -10.599530 -1.645425 -20.543415
RightArm 26.259662 -38.209291 90.023085
RightForeArm -17.713101 -0.000000 18.158102
RightHand 16.854583 -0.000000 2.986235
RightHandThumb1 -24.326973 -0.000000 -32.862282
LeftUpLeg -0.995125 23.992148 16.005158
LeftLeg -9.438887 -0.000000 0.000000
LeftFoot -16.672073 19.210377 -17.321806
LeftToeBase 18.343469 -0.000000 -0.000000
RightUpLeg 41.515470 -55.079116 -63.531258
RightLeg 105.342492 -0.000000 -0.000000
RightFoot 24.518933 -30.501762 25.820173
RightToeBase 18.327880 -0.000000 -0.000000
